<svg xmlns="http://www.w3.org/2000/svg" xmlns:xlink="http://www.w3.org/1999/xlink" id="Layer_2" viewBox="0 0 200.49 68.58"><defs><style>.cls-1{fill:url(#linear-gradient-2);}.cls-2{fill:#30008d;}.cls-3{fill:#00afe1;}.cls-4{clip-path:url(#clippath);fill:none;}.cls-5{fill:url(#linear-gradient);}</style><linearGradient id="linear-gradient" x1="48.71" y1="4.82" x2="6.55" y2="44.55" gradientUnits="userSpaceOnUse"><stop offset="0" stop-color="#30008d"></stop><stop offset="1" stop-color="#b350ff"></stop></linearGradient><linearGradient id="linear-gradient-2" x1="41.12" y1="36.27" x2="8.88" y2="58.61" gradientUnits="userSpaceOnUse"><stop offset="0" stop-color="#00d6ed"></stop><stop offset=".25" stop-color="#00d1ec"></stop><stop offset=".53" stop-color="#00c4e9"></stop><stop offset=".82" stop-color="#00aee4"></stop><stop offset="1" stop-color="#009de1"></stop></linearGradient><clipPath id="clippath"><path class="cls-1" d="m6.73,58.94c-.48.48.03,1.28.67,1.05l41.65-15.16c.83-.3.78-1.49-.07-1.73-4.35-1.25-8.24-4.22-8.51-9.88-.27-5.88,4.85-12.53,8.4-16.4L6.73,58.94Z"></path></clipPath></defs><path class="cls-2" d="m191.31,24.4c-1.45,0-2.63,1.18-2.63,2.63s1.18,2.63,2.63,2.63,2.63-1.18,2.63-2.63-1.18-2.63-2.63-2.63Zm0,4.54c-1.05,0-1.91-.86-1.91-1.91s.86-1.91,1.91-1.91,1.91.86,1.91,1.91-.86,1.91-1.91,1.91Zm.96-2.25c0-.53-.37-.86-.97-.86h-.89v2.41h.51v-.67h.38s.05,0,.07,0l.49.67h.63l-.6-.82c.24-.15.38-.41.38-.73Zm-.97.37h-.38v-.72h.38c.46,0,.46.26.46.35s0,.37-.46.37Z"></path><path class="cls-5" d="m56.05,9.64c.48-.48-.03-1.28-.67-1.05L13.73,23.75c-.83.3-.78,1.49.07,1.73,4.35,1.25,8.24,4.22,8.51,9.88.27,5.88-4.85,12.53-8.4,16.4L56.05,9.64Z"></path><path class="cls-1" d="m6.73,58.94c-.48.48.03,1.28.67,1.05l41.65-15.16c.83-.3.78-1.49-.07-1.73-4.35-1.25-8.24-4.22-8.51-9.88-.27-5.88,4.85-12.53,8.4-16.4L6.73,58.94Z"></path><g class="cls-4"><polygon class="cls-3" points="18.03 47.65 48.87 16.82 43.83 26.34 18.03 47.65"></polygon></g><path class="cls-2" d="m94.21,30.31h1.86v-2.65h3.94v2.65h3.1v3.41h-3.1v5.12c0,.84.63,1.44,1.5,1.44h1.6v3.67h-2.26c-1.34,0-2.49-.42-3.41-1.23-.92-.84-1.36-1.89-1.36-3.12v-5.88h-1.86v-3.41Z"></path><path class="cls-2" d="m126.55,30.31h2.96v3.33h-2.96v10.31h-3.94v-10.31h-1.97v-3.33h1.97v-1.52c0-1.29.47-2.36,1.44-3.23.97-.87,2.18-1.29,3.62-1.29h1.84v3.65h-1.5c-.84,0-1.47.58-1.47,1.39v1Z"></path><path class="cls-2" d="m131.01,37.13c0-2.02.68-3.73,2.07-5.09,1.39-1.39,3.15-2.07,5.22-2.07s3.8.68,5.19,2.07c1.39,1.36,2.1,3.07,2.1,5.09s-.71,3.73-2.1,5.12c-1.39,1.36-3.12,2.05-5.19,2.05s-3.83-.68-5.22-2.05c-1.39-1.39-2.07-3.1-2.07-5.12Zm9.55,2.33c.63-.66.94-1.42.94-2.33s-.31-1.68-.94-2.31c-.6-.66-1.36-.97-2.26-.97s-1.68.31-2.28.94c-.6.63-.92,1.42-.92,2.33s.31,1.71.92,2.33c.6.63,1.36.94,2.28.94s1.65-.31,2.26-.94Z"></path><path class="cls-2" d="m151.78,31.72c.92-1.18,2.31-1.76,4.17-1.76v4.2c-.37-.24-.84-.37-1.42-.37-1.57,0-2.75,1.21-2.75,2.81v7.35h-3.94v-13.64h3.94v1.42Z"></path><path class="cls-2" d="m156.14,43.95l8.29-19.68h2.33l8.26,19.68h-4.33l-1.26-3.1h-7.69l-1.26,3.1h-4.36Zm9.47-12.46l-2.31,5.64h4.62l-2.31-5.64Z"></path><path class="cls-2" d="m177.05,43.95v-19.68h3.94v19.68h-3.94Z"></path><path class="cls-2" d="m183.68,43.95v-19.68h3.94v19.68h-3.94Z"></path><path class="cls-2" d="m83.79,44.31c-2.65,0-4.43-1.68-4.43-4.17,0-1.79.88-2.99,2.61-3.58,1.51-.51,3.78-.63,5.78-.7h.1v-.94c0-1.25-.91-2.06-2.32-2.06-1.21,0-2.1.55-2.58,1.59l-.05.11-3.03-1.52.06-.11c1.06-2.04,2.92-2.99,5.85-2.99,3.97,0,6.15,1.73,6.15,4.87v9.14h-3.89v-1.59c-.88,1.16-2.56,1.94-4.24,1.94Zm3.96-6.23c-1.08.07-1.94.16-2.62.26-.74.12-1.73.41-1.73,1.57,0,.81.6,1.62,1.93,1.62,1.49,0,2.53-1.07,2.53-2.61v-.84h-.11Z"></path><path class="cls-2" d="m110.37,44.31c-2.65,0-4.43-1.68-4.43-4.17,0-1.79.88-2.99,2.61-3.58,1.51-.51,3.78-.63,5.78-.7h.1v-.94c0-1.25-.91-2.06-2.32-2.06-1.21,0-2.1.55-2.58,1.59l-.05.11-3.03-1.52.06-.11c1.06-2.04,2.92-2.99,5.85-2.99,3.97,0,6.15,1.73,6.15,4.87v9.14h-3.89v-1.59c-.88,1.16-2.56,1.94-4.24,1.94Zm3.96-6.23c-1.08.07-1.94.16-2.62.26-.74.12-1.73.41-1.73,1.57,0,.81.6,1.62,1.93,1.62,1.49,0,2.53-1.07,2.53-2.61v-.84h-.11Z"></path><path class="cls-2" d="m59.43,43.95v-19.43h7.97c2.87,0,5.31.94,7.25,2.81,1.95,1.84,2.94,4.17,2.94,6.91s-.99,5.07-2.94,6.91c-1.95,1.86-4.39,2.81-7.25,2.81h-7.97Zm4.22-3.86h3.75c1.62,0,3.01-.57,4.13-1.69s1.67-2.51,1.67-4.16-.57-3.04-1.69-4.16-2.48-1.69-4.11-1.69h-3.75v11.71Z"></path></svg>